<?xml version="1.0" encoding="UTF-8" standalone="no"?>
<svg
   fill="none"
   version="1.1"
   viewBox="0 0 33.150001 31.67"
   id="svg2"
   sodipodi:docname="OpenVPN_logo.svg"
   inkscape:version="1.3 (0e150ed6c4, 2023-07-21)"
   width="33.150002"
   height="31.67"
   xmlns:inkscape="http://www.inkscape.org/namespaces/inkscape"
   xmlns:sodipodi="http://sodipodi.sourceforge.net/DTD/sodipodi-0.dtd"
   xmlns="http://www.w3.org/2000/svg"
   xmlns:svg="http://www.w3.org/2000/svg"
   xmlns:rdf="http://www.w3.org/1999/02/22-rdf-syntax-ns#"
   xmlns:cc="http://creativecommons.org/ns#"
   xmlns:dc="http://purl.org/dc/elements/1.1/">
  <defs
     id="defs2" />
  <sodipodi:namedview
     id="namedview2"
     pagecolor="#ffffff"
     bordercolor="#000000"
     borderopacity="0.25"
     inkscape:showpageshadow="2"
     inkscape:pageopacity="0.0"
     inkscape:pagecheckerboard="0"
     inkscape:deskcolor="#d1d1d1"
     inkscape:zoom="13.843498"
     inkscape:cx="86.900002"
     inkscape:cy="15.855819"
     inkscape:window-width="2560"
     inkscape:window-height="1371"
     inkscape:window-x="0"
     inkscape:window-y="0"
     inkscape:window-maximized="1"
     inkscape:current-layer="svg2" />
  <title
     id="title1">OpenVPN logo</title>
  <path
     d="m 21.692,16.371 c 0,-2.7994 -2.2857,-5.0693 -5.1762,-5.0693 -2.8915,0 -5.1752,2.2611 -5.1752,5.0693 0,1.0374 0.32326,2.0493 0.92503,2.8925 a 4.9424,4.8722 0 0 0 2.4309,1.8071 l -2.0341,10.41 h 7.636 l -1.9634,-10.41 c 1.9625,-0.75304 3.356,-2.5121 3.356,-4.7006 z"
     fill="#1a3967"
     style="stroke-width:0.98756"
     id="path1" />
  <path
     d="m 32.897,16.295 c 0,-8.7561 -7.3137,-15.868 -16.308,-15.868 -8.9947,0 -16.311,7.1049 -16.311,15.868 0,5.8155 3.2107,10.876 7.995,13.602 L 9.2995,23.1137 C 7.7068235,21.39768 6.8165228,19.160241 6.8009,16.8344 c 0,-5.2046 4.3546,-9.4385 9.7068,-9.4385 5.3512,0 9.7078,4.2339 9.7078,9.4395 0.0014,2.349415 -0.885955,4.614917 -2.4886,6.3538 l 1.0344,6.7833 c 4.8887,-2.7288 8.1363,-7.8599 8.1363,-13.675"
     fill="#ea7d1f"
     style="stroke-width:0.98756"
     id="path2"
     sodipodi:nodetypes="csscccscccc" />
  <metadata
     id="metadata2">
    <rdf:RDF>
      <cc:Work
         rdf:about="">
        <dc:title>OpenVPN logo</dc:title>
      </cc:Work>
    </rdf:RDF>
  </metadata>
</svg>
